<svg width="772" height="231" viewBox="0 0 772 231" fill="none" xmlns="http://www.w3.org/2000/svg">
<path d="M1.9 28.8001L0 4.67011H38.73L41.9 29.1201H43.49C53.34 9.75011 71.43 0.860107 88.57 0.860107C98.73 0.860107 108.89 3.40011 115.24 9.11011L105.08 43.4001H101.59C98.1 40.8601 90.79 38.3201 80 38.3201C60.95 38.3201 42.54 52.2901 42.54 82.4501V164.36H1.9V28.8001Z" fill="#231F20"/>
<path d="M120.63 87.5301C120.63 29.7501 160.31 0.860107 200.63 0.860107C244.76 0.860107 275.24 31.0201 273.02 91.3401L270.8 94.5101H163.17C167.3 124.35 186.34 136.1 206.34 136.1C228.25 136.1 242.85 124.99 250.47 114.51H250.79L271.43 140.23C256.19 156.1 230.79 168.17 200 167.21C149.52 165.95 120.63 135.47 120.63 87.5301ZM231.43 67.8501C230.79 50.3901 218.41 31.3401 198.73 31.3401C176.51 31.3401 165.4 49.7501 163.17 67.8501H231.43Z" fill="#231F20"/>
<path d="M444.26 78.6099L432.54 15.9399L381.6 66.8899L444.26 78.6099Z" fill="#61C993"/>
<path d="M457.18 95.21L519.84 106.93L468.89 157.88L457.18 95.21Z" fill="#61C993"/>
<path d="M580.11 223.73L591.22 191.03H592.49C596.62 194.21 606.46 196.75 616.94 196.75C638.85 196.75 653.45 182.47 665.2 157.7L669.96 147.54L603.92 5.93992V4.66992H649.95L690.59 100.87H691.23L730.91 4.66992H771.55V5.93992L698.53 167.53C680.12 209.44 652.18 230.71 613.77 230.71C598.21 230.71 586.78 227.54 580.11 223.73Z" fill="#231F20"/>
<path d="M528.68 0C507.9 0 488.48 8.84 473.99 24.89C471.53 27.61 467.41 32.26 462.73 37.57L489.44 64.28C494.68 58.33 499.36 53.05 501.98 50.15C509.23 42.12 518.71 37.7 528.68 37.7C550.02 37.7 567.38 57.84 567.38 82.61C567.38 107.38 550.02 127.52 528.68 127.52C518.98 127.52 509.7 123.31 502.52 115.66C499.71 112.67 494.81 107.17 489.37 101.01L462.66 127.72C467.71 133.43 472.25 138.49 475.02 141.45C489.4 156.79 508.46 165.23 528.68 165.23C570.81 165.23 605.09 128.17 605.09 82.62C605.09 37.07 570.81 0 528.68 0Z" fill="#61C993"/>
<path d="M407.16 101.01C401.78 107.11 396.93 112.53 394 115.65C386.31 123.86 378.83 127.51 369.75 127.51C347.74 127.51 329.14 106.95 329.14 82.6C329.14 57.84 346.5 37.69 367.84 37.69C377.81 37.69 387.29 42.11 394.54 50.14C397.23 53.12 401.85 58.34 407.08 64.27L433.8 37.55C429.14 32.26 425.08 27.68 422.54 24.87C408.05 8.84 388.63 0 367.85 0C325.72 0 291.44 37.06 291.44 82.61C291.44 104.35 299.59 124.96 314.4 140.64C329.15 156.26 349.33 165.23 369.76 165.23C389.31 165.23 406.72 157.23 421.51 141.45C424.42 138.35 428.88 133.37 433.87 127.73L407.16 101.01Z" fill="#61C993"/>
</svg>
